<svg xmlns="http://www.w3.org/2000/svg" viewBox="0 0 32 32" width="32" height="32">
    <defs>
        <linearGradient id="bg" x1="0%" y1="0%" x2="100%" y2="100%">
            <stop offset="0%" stop-color="#8180b4"/>
            <stop offset="50%" stop-color="#616ca8"/>
            <stop offset="100%" stop-color="#dfbee8"/>
        </linearGradient>
        <linearGradient id="accent" x1="0%" y1="0%" x2="100%" y2="0%">
            <stop offset="0%" stop-color="#dfbee8"/>
            <stop offset="100%" stop-color="#c8a2c8"/>
        </linearGradient>
    </defs>

    <!-- Background -->
    <circle cx="16" cy="16" r="15" fill="url(#bg)"/>

    <!-- AI Chip -->
    <rect x="10" y="10" width="12" height="12" rx="2" fill="rgba(255,255,255,0.15)" stroke="rgba(255,255,255,0.3)" stroke-width="0.5"/>

    <!-- Circuit connections -->
    <line x1="8" y1="14" x2="10" y2="14" stroke="white" stroke-width="1" opacity="0.6"/>
    <line x1="8" y1="18" x2="10" y2="18" stroke="white" stroke-width="1" opacity="0.6"/>
    <line x1="22" y1="14" x2="24" y2="14" stroke="white" stroke-width="1" opacity="0.6"/>
    <line x1="22" y1="18" x2="24" y2="18" stroke="white" stroke-width="1" opacity="0.6"/>
    <line x1="14" y1="8" x2="14" y2="10" stroke="white" stroke-width="1" opacity="0.6"/>
    <line x1="18" y1="8" x2="18" y2="10" stroke="white" stroke-width="1" opacity="0.6"/>
    <line x1="14" y1="22" x2="14" y2="24" stroke="white" stroke-width="1" opacity="0.6"/>
    <line x1="18" y1="22" x2="18" y2="24" stroke="white" stroke-width="1" opacity="0.6"/>

    <!-- Central core -->
    <circle cx="16" cy="16" r="3" fill="url(#accent)"/>

    <!-- Neural nodes -->
    <circle cx="13" cy="13" r="0.8" fill="white" opacity="0.8"/>
    <circle cx="19" cy="13" r="0.8" fill="white" opacity="0.8"/>
    <circle cx="13" cy="19" r="0.8" fill="white" opacity="0.8"/>
    <circle cx="19" cy="19" r="0.8" fill="white" opacity="0.8"/>

    <!-- Connections -->
    <line x1="13" y1="13" x2="16" y2="16" stroke="white" stroke-width="0.5" opacity="0.4"/>
    <line x1="19" y1="13" x2="16" y2="16" stroke="white" stroke-width="0.5" opacity="0.4"/>
    <line x1="13" y1="19" x2="16" y2="16" stroke="white" stroke-width="0.5" opacity="0.4"/>
    <line x1="19" y1="19" x2="16" y2="16" stroke="white" stroke-width="0.5" opacity="0.4"/>
</svg>